<?xml version="1.0" encoding="UTF-8"?>
<!DOCTYPE svg PUBLIC "-//W3C//DTD SVG 1.1//EN" "http://www.w3.org/Graphics/SVG/1.1/DTD/svg11.dtd">
<!-- Creator: CorelDRAW X6 -->
<svg xmlns="http://www.w3.org/2000/svg" xml:space="preserve" width="46.4503mm" height="9.398mm" version="1.1" style="shape-rendering:geometricPrecision; text-rendering:geometricPrecision; image-rendering:optimizeQuality; fill-rule:evenodd; clip-rule:evenodd"
viewBox="0 0 1367 277"
 xmlns:xlink="http://www.w3.org/1999/xlink">
 <defs>
  <style type="text/css">
   <![CDATA[
    .fil0 {fill:black;fill-rule:nonzero}
   ]]>
  </style>
 </defs>
 <g id="Camada_x0020_1">
  <metadata id="CorelCorpID_0Corel-Layer"/>
  <path class="fil0" d="M213 192c0,16 -4,31 -13,44 -8,13 -20,23 -37,30 -16,7 -35,11 -57,11 -26,0 -48,-5 -65,-15 -12,-7 -22,-17 -30,-29 -8,-12 -11,-24 -11,-35 0,-7 2,-12 7,-17 5,-5 10,-7 17,-7 6,0 11,2 14,5 4,4 7,9 10,16 3,8 7,16 11,21 4,6 10,10 17,14 7,4 17,6 28,6 16,0 29,-4 39,-11 10,-7 15,-17 15,-28 0,-9 -3,-16 -8,-22 -5,-6 -12,-10 -21,-13 -9,-3 -20,-6 -34,-9 -19,-4 -35,-10 -48,-16 -13,-6 -23,-14 -31,-25 -8,-10 -11,-23 -11,-39 0,-15 4,-28 12,-39 8,-11 20,-20 35,-26 15,-6 33,-9 54,-9 16,0 31,2 43,6 12,4 22,10 30,16 8,7 14,14 17,21 4,7 5,15 5,22 0,6 -2,12 -7,17 -5,5 -10,8 -17,8 -6,0 -11,-2 -14,-5 -3,-3 -7,-8 -10,-15 -5,-10 -11,-18 -18,-24 -7,-6 -18,-8 -33,-8 -14,0 -25,3 -34,9 -9,6 -13,14 -13,22 0,5 1,10 4,14 3,4 7,7 12,10 5,3 10,5 16,7 5,2 14,4 26,7 15,4 29,7 41,12 12,4 23,9 31,16 9,6 15,14 20,23 5,9 7,21 7,34zm92 -90l0 144c0,10 -2,18 -7,23 -5,5 -11,8 -18,8 -7,0 -13,-3 -18,-8 -5,-5 -7,-13 -7,-22l0 -143c0,-10 2,-17 7,-22 5,-5 10,-7 18,-7 7,0 13,2 18,7 5,5 7,12 7,21zm-25 -51c-7,0 -13,-2 -18,-6 -5,-4 -7,-10 -7,-18 0,-7 2,-13 8,-17 5,-5 11,-7 18,-7 6,0 12,2 17,6 5,4 7,10 7,18 0,8 -2,14 -7,18 -5,4 -11,6 -17,6zm236 161c0,14 -3,25 -10,35 -7,10 -17,17 -30,22 -13,5 -29,8 -48,8 -18,0 -33,-3 -46,-8 -13,-5 -22,-12 -28,-20 -6,-8 -9,-16 -9,-25 0,-5 2,-10 6,-14 4,-4 9,-6 15,-6 5,0 9,1 12,4 3,3 5,6 8,11 5,9 11,16 18,20 7,4 17,7 29,7 10,0 18,-2 24,-7 6,-4 10,-10 10,-15 0,-9 -3,-15 -10,-19 -7,-4 -18,-8 -33,-12 -17,-4 -31,-9 -42,-13 -11,-5 -19,-11 -26,-19 -6,-8 -10,-17 -10,-28 0,-10 3,-19 9,-28 6,-9 15,-16 26,-21 12,-5 26,-8 42,-8 13,0 24,1 35,4 10,3 19,6 26,11 7,5 12,10 16,15 4,5 5,11 5,16 0,6 -2,10 -6,14 -4,4 -9,5 -16,5 -5,0 -9,-1 -13,-4 -4,-3 -8,-7 -12,-13 -4,-5 -8,-9 -13,-12 -5,-3 -12,-4 -21,-4 -9,0 -16,2 -22,6 -6,4 -9,9 -9,14 0,5 2,10 7,13 4,3 10,6 18,8 7,2 18,5 31,8 15,4 28,8 38,14 10,5 17,11 22,19 5,7 8,15 8,24zm149 -44l-50 0 0 76c0,11 -3,19 -8,25 -5,6 -12,8 -19,8 -8,0 -15,-3 -20,-8 -5,-6 -7,-14 -7,-24l0 -206c0,-12 3,-20 8,-26 5,-5 14,-8 26,-8l70 0c21,0 36,2 47,5 11,3 20,8 28,15 8,7 14,16 18,26 4,10 6,22 6,35 0,27 -8,48 -25,62 -17,14 -42,21 -75,21zm-13 -123l-36 0 0 82 36 0c13,0 23,-1 32,-4 9,-3 15,-7 20,-13 4,-6 7,-14 7,-24 0,-12 -3,-21 -10,-29 -8,-8 -24,-12 -48,-12zm205 159l0 42c0,10 -2,18 -7,23 -5,5 -11,8 -18,8 -7,0 -13,-3 -18,-8 -5,-5 -7,-13 -7,-23l0 -139c0,-22 8,-34 24,-34 8,0 14,3 18,8 4,5 6,13 6,23 6,-10 12,-18 18,-23 6,-5 15,-8 25,-8 10,0 21,3 30,8 10,5 15,12 15,21 0,6 -2,11 -6,15 -4,4 -9,6 -14,6 -2,0 -6,-1 -13,-3 -7,-2 -13,-3 -19,-3 -7,0 -13,2 -18,6 -5,4 -8,10 -11,17 -3,8 -4,17 -5,27 -1,10 -1,23 -1,38zm287 -29c0,15 -2,29 -7,41 -5,13 -11,23 -20,32 -9,9 -19,16 -31,21 -12,5 -26,7 -41,7 -15,0 -29,-2 -41,-7 -12,-5 -22,-12 -31,-21 -9,-9 -16,-20 -20,-32 -5,-12 -7,-26 -7,-41 0,-15 2,-29 7,-41 5,-13 11,-23 20,-32 9,-9 19,-16 31,-20 12,-5 26,-7 41,-7 15,0 29,2 41,7 12,5 23,12 32,21 9,9 15,20 20,32 5,12 7,26 7,41zm-50 0c0,-20 -4,-36 -13,-47 -9,-11 -21,-17 -36,-17 -10,0 -18,2 -26,8 -7,5 -13,13 -17,22 -4,10 -6,21 -6,34 0,13 2,24 6,34 4,10 10,17 17,22 7,5 16,8 26,8 15,0 27,-6 36,-17 9,-11 13,-27 13,-47zm226 73l0 -5c-7,8 -13,14 -20,19 -6,5 -14,8 -21,11 -8,2 -16,4 -25,4 -12,0 -23,-3 -33,-8 -10,-5 -19,-12 -26,-22 -7,-9 -13,-20 -17,-33 -4,-13 -6,-26 -6,-41 0,-31 8,-55 23,-73 15,-17 35,-26 60,-26 14,0 26,2 36,7 10,5 19,13 29,23l0 -74c0,-10 2,-18 6,-23 4,-5 10,-8 17,-8 8,0 13,2 17,7 4,5 6,12 6,21l0 220c0,9 -2,17 -7,21 -4,5 -10,7 -17,7 -7,0 -12,-2 -17,-7 -4,-5 -7,-12 -7,-21zm-98 -73c0,14 2,25 6,35 4,9 10,17 17,21 7,5 15,7 24,7 9,0 17,-2 24,-7 7,-5 13,-12 17,-21 4,-9 6,-21 6,-35 0,-13 -2,-25 -6,-34 -4,-10 -10,-17 -17,-22 -7,-5 -15,-8 -24,-8 -9,0 -17,3 -24,8 -7,5 -13,13 -17,22 -4,10 -6,21 -6,34z"/>
 </g>
</svg>
